# xmcd
# Copyright (C) 1995-1998 Ti Kan
#
# Track frame offsets:
#       150
#       11816
#       27024
#       40339
#       54213
#       67432
#       80968
#       89924
#       102176
#       118109
#       132406
#       143590
#       154678
#       166737
#       170211
#
# Disc length: 2444 seconds
#
# Revision: 0
# Processed by: cddbd v1.5.2PL0 Copyright (c) Steve Scherf et al.
# Submitted via: CD-Import v1.0
#
DISCID=d5098a0f
DTITLE=Bruno Hächler - Stadtfüchs
DYEAR=11
DGENRE=
TTITLE0=Mäntig, Zischtig
TTITLE1=Chugelfisch
TTITLE2=Fuchs I De Stadt
TTITLE3=Choche Mit Em Hamschter
TTITLE4=De Reiher
TTITLE5=Ich Chrüche Under D Decki
TTITLE6=Rote Rab
TTITLE7=Ich Bi Grösser
TTITLE8=Mond
TTITLE9=Kurt
TTITLE10=S Gäle Taxi
TTITLE11=1 Und 1 Und 1
TTITLE12=Herbschtlied
TTITLE13=Mäntig, Zischtig (Reprise)
TTITLE14=Singe
EXTD=
EXTT0=
EXTT1=
EXTT2=
EXTT3=
EXTT4=
EXTT5=
EXTT6=
EXTT7=
EXTT8=
EXTT9=
EXTT10=
EXTT11=
EXTT12=
EXTT13=
EXTT14=
PLAYORDER=
